<?xml version="1.0" encoding="UTF-8"?>
<svg id="Layer_1" data-name="Layer 1" xmlns="http://www.w3.org/2000/svg" viewBox="0 0 1435.69 601.37">
  <defs>
    <style>
      .cls-1, .cls-2 {
        fill: #fff;
      }

      .cls-2 {
        stroke: #fff;
        stroke-miterlimit: 10;
        stroke-width: 2px;
      }
    </style>
  </defs>
  <path class="cls-1" d="m1404.87,200.18h-13.46v26.15c0,4.9,1.25,7.5,6.63,7.5"/>
  <g>
    <path class="cls-2" d="m300.68,1C135.17,1,1,135.17,1,300.68s134.17,299.68,299.68,299.68,299.68-134.17,299.68-299.68S466.19,1,300.68,1Zm0,565.68c-146.91,0-266-119.09-266-266S153.78,34.68,300.68,34.68s266,119.09,266,266-119.09,266-266,266Z"/>
    <g id="Page_3" data-name="Page 3">
      <path class="cls-1" d="m307.47,398.45c-.08,1.47-.18,2.46-.18,3.45,0,23.91.05,47.83-.05,71.74-.01,2.74.71,3.94,3.48,4.66,17.53,4.58,21.38,25.51,12.71,37.32-6.55,8.92-15.5,11.7-25.68,9.92-9.61-1.69-15.95-8.22-18.95-17.43-3.7-11.36,3.57-25.28,15.17-29.06,3.88-1.26,5.22-2.95,5.11-7.1-.32-12.33-.11-24.67-.11-37.01,0-10.76.01-21.53-.02-32.29,0-1.31.32-2.72-.94-3.94-.89,3.59-.85,7.3-1.27,10.91-2.49,21.16-10.28,39.43-27.42,53.02-11.5,9.12-24.42,14.09-39.13,14.31-1.64.02-3.49-.26-3.73,2.16-1.43,13.97-19.32,22.52-32.82,16.58-10.26-4.51-16.67-16.21-14.44-27.15,2.35-11.52,12.3-19.85,23.77-19.87,10.82-.02,19.35,5.91,22.74,16.1,1.12,3.38,2.94,4.63,6.62,4.71,13.84.29,25.04-5.67,35.15-14.26,13.53-11.51,20.4-26.48,22.43-43.93.29-2.52.76-5.01.65-7.56-.04-1.06.55-2.58-.94-2.96-1.65-.42-1.96,1.23-2.57,2.29-1.14,1.96-2.15,4.01-3.15,6.02-8.43,16.95-22.68,25.17-40.76,28.3-11.58,2.01-23.2,2.77-34.85,2.09-22.18-1.29-43.42-6.4-62.15-18.85-4.35-2.89-6.76-3.47-11.51-.66-12.96,7.67-27.97,1.5-34-12-5.46-12.23,1.11-27.03,14.38-31.95,14.27-5.29,28.11,3.24,31.49,16.17,1.33,5.08,1.65,10.73-.66,15.71-1.46,3.14.03,4.46,1.97,5.93,5.11,3.86,10.87,6.51,16.79,8.88,13.4,5.37,27.19,8.62,41.68,9.48,16.47.97,32.73.73,48.44-4.84,13.05-4.63,20.78-14.7,26.67-27.07-1.87-.21-2.33.92-2.94,1.76-3.31,4.56-7.71,7.59-12.93,9.62-13.1,5.11-26.47,5.07-40.07,2.57-13.76-2.54-27.24-5.79-40.01-11.79-11.47-5.39-21.85-12.37-31.47-20.5-6.3-5.32-12.31-10.95-17.6-17.35-9.57-11.57-17.44-24.22-24.25-37.55-1.09-2.13-1.64-3.12-4.91-2.42-13.83,2.95-25.44-6.46-28.85-17.8-3.04-10.09,3.3-22.99,11.22-27.18,11.24-5.96,22.98-4.45,31.47,5.47,7.93,9.28,7.37,23.8-1.28,32.28-2.74,2.69-3.18,4.42-1.12,7.9,3.75,6.33,7.16,12.85,11.16,19.05,1.52,2.36,2.7,2.63,4.63.55,13.66-14.72,22.38-31.5,22.6-52.1.23-22.08-4.57-42.76-16.1-61.76-1.54-2.53-2.82-3.11-5.68-1.74-12.8,6.09-27.42-2.35-31.91-13.8-3.98-10.15-.45-25.25,12.63-30.59,17.41-7.11,34.51,5.2,34.22,21.55-.1,5.48-1.4,10.25-4.61,14.57-1.14,1.53-1.87,2.82-.25,4.63,1.64,1.83,3.05.82,4.35-.05,11.95-8.04,22.63-17.51,32.06-28.43,8.79-10.18,14.36-21.69,16.02-35.1.2-1.64.27-3.28.45-4.91.22-2-.56-2.76-2.56-3.34-12.03-3.51-17.71-11.07-18.54-22.73-.5-7,2.23-13.78,7.54-18.37,11.64-10.06,23.92-8.06,33.06-.85,6.25,4.92,10.74,17.08,6.89,26.08-3.65,8.54-9.11,13.5-17.63,16.28-3.72,1.21-2.14,5.44-2.66,8.31-.53,2.92,2.11,2.13,3.69,2.32,25.06,2.99,47.72-2.96,68.16-17.86,7.81-5.69,14.05-12.75,19.94-20.24,1.68-2.14,1.73-3.46-1.35-4.62-11.95-4.47-18.79-16.87-15.53-28.67,2.55-9.23,8.69-15.31,18.2-17.57,12.08-2.88,26.46,5.65,29.91,17.67,2.38,8.27-.81,17.85-7.46,23.34-2.86,2.36-5.63,4.74-9.24,5.85-2.66.81-1.22,2.34-.5,3.5,2.82,4.56,6.58,8.42,10.31,12.15,10.86,10.85,23.74,18.63,38.44,23.13,13.39,4.1,27.08,5.12,40.98,3.29,1.64-.21,2.22-.92,2.15-2.45-.04-.76-.11-1.54,0-2.29.52-3.79-.72-5.66-4.78-6.91-13.29-4.07-20-18.94-14.95-31.99,4.87-12.6,20.57-18.77,33.02-12.98,8.71,4.05,13.91,13.89,13.36,25.27-.4,8.3-7.68,17.45-16.44,19.92-3.61,1.02-4.08,2.31-3.76,6.05,1.95,22.61,15.14,38.24,30.93,52.76,5.46,5.03,11.43,9.07,17.39,13.28,1.42,1,2.84,1.98,4.31.19,1.28-1.56,1.22-2.89-.13-4.7-10.66-14.36-2.54-34.22,14.93-37.99,10.03-2.16,24.34,6.36,27.47,15.23,3.97,11.27-.15,22.83-10.65,29.21-7.16,4.35-14.54,5.17-22.12,1.65-2.61-1.22-3.56-.3-4.8,1.68-8.05,12.76-12.7,26.72-15.06,41.55-.47,2.98-.74,5.98-1.12,8.98-.76,5.96-.71,12,.21,17.94.16,1.02.32,2.06.47,3.13,2.42,17.11,10.78,31.21,22.81,43.36,1.5,1.51,1.98,1.28,3.02-.29,4.69-7.11,8.68-14.63,12.89-22.02,1.32-2.31.39-3.76-1.28-5.26-5.07-4.56-7.85-10.3-7.9-17.09-.07-9.63,4.7-16.71,12.68-21.58,8.66-5.29,17.68-4.69,25.53,1.16,7.75,5.78,12.36,13.95,10.44,24.11-1.81,9.58-7.47,16-17.11,19-4.3,1.34-8.33,1.81-12.61.69-2.37-.62-3.39.78-4.33,2.67-5.59,11.14-11.65,22.08-19.7,31.6-4.92,5.82-10.13,11.45-15.54,16.91-8.5,8.57-17.99,15.55-28.22,21.7-11.2,6.72-23.31,11.12-36,14.13-10.99,2.6-22.01,4.76-33.38,4.48-10.93-.27-20.94-3.46-30.15-9.27-.76-.48-1.37-1.98-2.44-.9-.85.87.11,1.94.63,2.74,5.92,9.25,13.83,15.86,24.26,19.87,8.7,3.34,17.5,4.55,26.65,4.32,9.76-.25,19.52.47,29.29-.62,11.45-1.28,22.07-5.22,32.66-9.35,5.8-2.26,11.37-4.93,16.34-8.87,2.42-1.92,2.82-3.5,1.87-6.25-3.8-11.04.22-23.47,10.15-29.61,8.17-5.05,16.78-4.87,24.89.11,7.19,4.42,11.16,10.8,11.71,19.68,1.05,16.78-13.89,26.03-24.65,25.72-5.27-.15-10.12-2.2-14.32-5.51-1.16-.91-2.05-1.78-3.6-.51-12.96,10.55-28.36,15.74-44.34,18.94-16.54,3.32-33.27,4.55-50.19,1.92-10.1-1.57-20.1-3.08-28.91-8.59-10.35-6.48-17.35-15.85-22.31-26.85-.62-1.38-1.08-2.62-2.91-2.16-1.86.47-1.43,2.15-1.16,3.14,2.78,10.03,2.14,20.96,7.33,30.3,5.85,10.51,13.32,19.68,23.46,26.55,8.84,5.98,18.44,9.01,29.05,9.37,2.88.1,4.17-1.02,4.77-3.6,1.48-6.32,5.33-11.15,10.84-14.09,13.34-7.12,32.08-3.39,36.18,14.38,3.19,13.82-2.17,25.69-17.32,30.16-12.09,3.56-25.72-4.06-29.73-16.79-.79-2.5-1.84-3.22-4.44-3.24-14.25-.1-26.73-5.33-37.84-13.97-15.24-11.84-23.57-27.89-27.53-46.4-.94-4.41-.66-9.09-1.01-13.64-.1-1.31.49-2.8-1.32-4.43Zm-71.65-79.59v.05c-4.2,0-8.4-.12-12.59.03-5.26.19-10.15-.5-15.09-2.77-8.29-3.82-13.78-9.27-15.49-18.64-1.1-6.04-.2-11.67,1.53-17.18,9.27-29.45,25.44-54.31,49.97-73.37,22.61-17.57,48.52-22.22,76.25-18.29,21.82,3.09,39.56,14.43,54.94,29.5,8.49,8.31,15.33,18.04,21.54,28.32,7.09,11.74,12.96,23.78,16.08,37.15,1.32,5.64,1.54,11.17.11,16.86-2.8,11.18-13.79,17.35-24.27,18.18-11.75.93-23.65.37-35.47.06-3.96-.1-5.59,1.32-5.91,4.97-.09,1-.51,1.99-.5,2.98.16,17.32-.56,34.54-2.73,51.78-.93,7.4-2.75,13.49-8.76,17.9-1.81,1.32-1.65,2.27-.27,3.58,2.96,2.8,6.05,5.38,9.98,6.73,5.54,1.91,11.42,2.13,17.08,2.15,15.29.04,30.19-3,44.61-8.01,24.81-8.61,44.66-24.14,61.19-44.29,2.22-2.71,2.05-4.35-.36-6.67-6.15-5.94-11.28-12.76-15.3-20.29-8.23-15.41-11.15-31.77-9.36-49.25,1.54-15.05,4.7-29.53,11.65-43,1.67-3.24,1.05-4.63-1.9-6.52-8.97-5.77-17.23-12.55-24.76-20.05-10.69-10.66-19.67-22.57-23.61-37.55-.4-1.53-.88-2.21-2.87-1.94-8.55,1.14-17.09,1.41-25.75.42-15.55-1.78-29.77-7.03-42.96-15.23-11-6.84-20.3-15.56-27.62-26.29-1.89-2.76-3.21-2.39-4.53.29-1.24,2.53-3.13,4.52-4.93,6.65-19.44,23-44.48,34.05-74.26,35.23-5.35.21-10.64-.36-15.94-.81-1.99-.17-3.06.62-3.57,2.54-3.43,12.87-11.06,23.19-19.77,32.93-8.62,9.65-19.38,16.63-29.52,24.41-1.18.9-3.11,1.31-1.86,3.72,7.05,13.55,10.98,27.97,12.39,43.2,1.16,12.51.77,24.77-2.9,36.87-4.19,13.84-12.39,25.19-22.07,35.58-1.93,2.07-1.9,3.43-.19,5.42,18.19,21.22,39.33,38.04,66.49,46.66,6.12,1.94,12.38,3.12,18.52,4.32,9.32,1.83,18.95,2.74,28.58,1.15,7-1.16,13.56-3.23,19.24-7.59,1.67-1.28,2.77-2.38-.16-4.04-4.5-2.56-7.53-6.99-8.27-11.86-1.36-8.97-2.02-18.1-2.28-27.18-.22-7.74-.69-15.46-.87-23.2-.08-3.41.05-6.82-.07-10.23-.15-4.43-1.13-5.32-5.5-5.33-5.98-.02-11.96,0-17.93,0Zm-34.23-206.07c-11.56-.66-18.93,8.66-18.56,17.66.42,10.45,6.87,16.96,18.11,17.48,9.43.44,18.43-8.4,18.38-17.47-.06-9.96-8.32-18.25-17.92-17.67Zm301.19,205.33c11.55,1.03,19.39-9.21,19.12-17.21-.36-10.7-7.18-17.81-18-17.82-9.57,0-16.99,7.8-17.32,17.52-.24,7.31,7.6,18.88,16.2,17.51Zm-20.08,98.5c9.93.04,18.45-8.32,18.37-18.01-.07-9.28-7.8-16.53-16.95-17.18-11.86-.84-18.76,9.9-18.8,17.31-.06,9.01,8.6,17.84,17.38,17.87Zm-77.62-303.83c-9.88-.01-17.67,7.62-17.73,17.38-.06,9.89,7.63,17.91,17.33,17.82,10.42-.1,17.78-7.31,17.87-17.44.09-10.35-7.23-17.75-17.47-17.76ZM119.59,300.88c.65-9.51-6.82-17.8-17.86-17.81-9.57-.01-17.15,6.91-17.25,17.56-.09,9.55,8.06,17.39,17.77,17.58,9.46.18,18.48-9.29,17.35-17.33Zm3.36,80.67c-10.08,0-17.16,7.1-17.18,17.22-.02,9.71,7.67,17.84,16.88,17.85,10.16,0,18.19-7.96,18.25-17.94.05-8.59-7.97-18.22-17.94-17.13Zm279.9,109.11c11.08,0,17.47-7.4,17.95-17.62.43-9.32-7.85-17.18-16.98-17.53-10.67-.41-18.35,9.1-18.56,17.35-.23,8.71,7.8,18.16,17.59,17.8ZM126.59,224.37c9.37,0,17.34-8.08,17.35-17.6.01-9.21-8.66-18.05-17.99-17.5-11.92.7-17,6.52-17.57,17.88-.53,10.49,10.69,17.99,18.21,17.22Zm353.22,0c10.03.01,18.29-7.88,18.31-17.48.02-9.58-8.15-17.76-17.67-17.71-9.76.05-17.52,7.9-17.51,17.73,0,9.5,7.69,17.45,16.88,17.46Zm-259.53,248.81c0-10.39-6.86-17.59-16.77-17.61-10-.02-17.58,7.56-17.6,17.56-.01,9.93,7.42,17.51,17.18,17.54,10.32.03,17.18-6.96,17.19-17.49Zm100.08-373.48c.02-9.18-8.53-18.29-17.03-18.16-8.86.14-17.6,8.81-17.38,17.83.27,10.84,7.87,17.67,17.17,17.82,9.06.15,16.82-6.04,17.24-17.5Zm-16.81,384.9c-10.3.01-16.92,6.68-16.93,17.05,0,9.57,7.58,17.93,16.32,17.97,9.05.05,17.29-8.19,17.26-17.25-.03-10.52-6.83-17.78-16.65-17.77Z"/>
    </g>
  </g>
  <g>
    <path class="cls-1" d="m672.56,241.72v-69.62h11.25v69.62h-11.25Z"/>
    <path class="cls-1" d="m740.83,241.72v-32.02c0-6.25-2.31-9.52-8.17-9.52-5,0-10.19,3.08-12.6,5.29v36.25h-11.06v-49.71h9.81l.48,5.19c4.42-3.56,10.38-6.25,17.21-6.25,10.77,0,15.38,5.67,15.38,16.92v33.85h-11.06Z"/>
    <path class="cls-1" d="m791.4,242.87c-9.81,0-14.81-4.42-14.81-15v-27.69h-7.6v-8.17h7.6v-14.52l11.06-1.54v16.06h13.46v8.17h-13.46v26.15c0,4.9,1.25,7.5,6.63,7.5,2.98,0,6.44-1.15,8.46-2.31l1.83,7.88c-2.5,1.63-7.88,3.46-13.17,3.46Z"/>
    <path class="cls-1" d="m818.61,216.91c0-17.98,10.77-25.96,23.75-25.96,14.42,0,20.38,9.13,20.38,22.02,0,2.02-.1,4.33-.29,6.63h-32.21c.29,10.48,5.29,14.23,12.5,14.23,6.35,0,9.04-2.98,10.19-8.08l9.42,2.31c-1.92,9.42-9.52,14.81-20.29,14.81-17.88,0-23.46-12.31-23.46-25.96Zm23.08-17.21c-5.58,0-10.77,3.37-11.25,12.21h20.87c0-8.46-2.98-12.21-9.62-12.21Z"/>
    <path class="cls-1" d="m894.95,207.2v34.52h-11.06v-49.71h9.33l.87,7.4c3.94-5.58,8.94-8.46,16.25-8.46.58,0,.96,0,2.02.1v11.06c-6.25-.77-13.27,1.44-17.4,5.1Z"/>
    <path class="cls-1" d="m926.3,217.49c0-17.21,9.04-26.54,24.62-26.54,10.96,0,18.75,6.44,19.62,18.17l-10.19,1.44c-.77-6.54-3.46-10.77-9.9-10.77s-12.6,3.27-12.6,16.44,5.38,17.6,12.31,17.6c6.15,0,9.81-2.98,10.96-9.9l9.62,1.92c-1.63,11.92-10.48,17.02-21.15,17.02-16.44,0-23.27-10.58-23.27-25.38Z"/>
    <path class="cls-1" d="m988.31,217.1c0-15.96,8.27-26.15,24.71-26.15s22.98,10.29,22.98,25c0,16.35-7.12,26.92-24.23,26.92s-23.46-10.96-23.46-25.77Zm36.15-.58c0-12.4-4.04-16.63-11.83-16.63s-12.79,4.71-12.79,16.83,3.85,17.6,12.5,17.6c7.6,0,12.12-5,12.12-17.79Z"/>
    <path class="cls-1" d="m1057.15,241.72v-72.6h11.06v72.6h-11.06Z"/>
    <path class="cls-1" d="m1091.86,241.72v-72.6h11.06v72.6h-11.06Z"/>
    <path class="cls-1" d="m1123.68,216.91c0-17.98,10.77-25.96,23.75-25.96,14.42,0,20.38,9.13,20.38,22.02,0,2.02-.1,4.33-.29,6.63h-32.21c.29,10.48,5.29,14.23,12.5,14.23,6.35,0,9.04-2.98,10.19-8.08l9.42,2.31c-1.92,9.42-9.52,14.81-20.29,14.81-17.88,0-23.46-12.31-23.46-25.96Zm23.08-17.21c-5.58,0-10.77,3.37-11.25,12.21h20.87c0-8.46-2.98-12.21-9.62-12.21Z"/>
    <path class="cls-1" d="m1221.18,194.89c1.73-4.04,4.62-6.54,8.27-6.54,1.63,0,2.5.1,3.94.58v7.4c-3.08-.19-6.63.19-9.23.96,2.88,2.98,4.42,7.4,4.42,11.44,0,11.25-9.23,17.69-21.25,17.69-3.27,0-6.06-.29-8.65-1.06-1.25.96-2.4,2.5-2.4,3.94,0,1.73.87,2.98,5.1,3.27l14.62.87c10.38.67,16.54,3.85,16.54,12.98,0,12.98-12.5,17.02-25.77,17.02-18.46,0-23.08-6.15-23.08-12.4,0-5.19,3.65-8.46,8.27-10v-.29c-3.65-1.25-5.87-3.65-5.87-7.5,0-4.52,3.37-7.4,7.02-10.19-4.42-2.5-7.31-7.4-7.31-13.75,0-10.77,8.08-18.37,21.44-18.37,5.77,0,10.58,1.06,13.94,3.94Zm-7.4,48.37l-15.67-.87c-2.6,1.83-4.13,4.04-4.13,6.73,0,4.04,3.46,6.06,12.88,6.06s14.33-2.02,14.33-6.54c0-3.08-1.35-5.1-7.4-5.38Zm-6.25-43.75c-6.25,0-10.96,2.69-10.96,9.13,0,5.77,3.17,9.33,10.87,9.33,6.35,0,10.77-3.46,10.77-9.13,0-6.25-4.04-9.33-10.67-9.33Z"/>
    <path class="cls-1" d="m1257.14,183.64c-4.52,0-7.21-2.6-7.21-7.31s2.69-7.21,7.21-7.21,7.21,2.6,7.21,7.21-2.6,7.31-7.21,7.31Zm-5.58,58.08v-49.71h11.06v49.71h-11.06Z"/>
    <path class="cls-1" d="m1327.04,235.08c.87,0,1.73-.19,2.98-.58l.38,6.54c-1.92.96-5.1,1.63-7.79,1.63-5.19,0-7.5-2.02-8.37-5.87-3.37,3.65-8.85,6.06-15.77,6.06-12.5,0-14.71-8.46-14.71-13.37,0-12.88,10.96-17.12,24.33-17.12,2.31,0,3.75.1,5.1.19v-3.75c0-6.06-1.35-9.52-8.65-9.52-6.06,0-8.08,2.5-9.13,7.69l-9.71-1.73c1.54-9.33,7.5-14.33,19.71-14.33s18.65,4.9,18.65,17.31v22.98c0,2.69.48,3.85,2.98,3.85Zm-18.37-15.1c-5.58,0-13.65.67-13.65,7.98,0,3.46,1.54,6.63,7.4,6.63,4.52,0,8.65-2.31,10.87-4.62v-9.81c-.96-.1-2.12-.19-4.62-.19Z"/>
    <path class="cls-1" d="m1364.34,242.87c-9.81,0-14.81-4.42-14.81-15v-27.69h-7.6v-8.17h7.6v-14.52l11.06-1.54v16.06h13.46v8.17h-13.46v26.15c0,4.9,1.25,7.5,6.63,7.5,2.98,0,6.44-1.15,8.46-2.31l1.83,7.88c-2.5,1.63-7.88,3.46-13.17,3.46Z"/>
    <path class="cls-1" d="m1391.55,216.91c0-17.98,10.77-25.96,23.75-25.96,14.42,0,20.38,9.13,20.38,22.02,0,2.02-.1,4.33-.29,6.63h-32.21c.29,10.48,5.29,14.23,12.5,14.23,6.35,0,9.04-2.98,10.19-8.08l9.42,2.31c-1.92,9.42-9.52,14.81-20.29,14.81-17.88,0-23.46-12.31-23.46-25.96Zm23.08-17.21c-5.58,0-10.77,3.37-11.25,12.21h20.87c0-8.46-2.98-12.21-9.62-12.21Z"/>
    <path class="cls-1" d="m672.56,357.1v-69.62h24.23c17.79,0,23.17,10.1,23.17,21.15,0,16.63-9.62,24.13-26.92,24.13h-9.33v24.33h-11.15Zm35.77-47.69c0-9.52-5.38-12.69-15-12.69h-9.62v26.73h8.37c9.04,0,16.25-2.12,16.25-14.04Z"/>
    <path class="cls-1" d="m774.29,320.46l-9.62,2.5c-1.15-4.9-2.98-8.37-9.42-8.37-6.06,0-8.56,2.6-8.56,5.86,0,4.62,4.23,5.96,10.77,7.12,8.56,1.54,17.69,3.56,17.69,14.9,0,10.29-8.27,15.77-20.48,15.77s-18.75-4.81-20.29-14.04l9.42-3.08c1.25,4.71,3.27,8.85,11.25,8.85,5.48,0,9.33-1.73,9.33-5.96,0-5-4.04-5.96-10.38-7.11-8.17-1.54-17.69-3.37-17.69-15.19,0-10.38,8.75-15.38,19.13-15.38,11.54,0,16.92,5.48,18.85,14.13Z"/>
    <path class="cls-1" d="m799.86,307.39l12.21,37.31h.1l12.21-37.31h11.35c-6.63,18.27-14.33,38.94-20.77,56.06-4.04,10.96-8.46,15.1-17.31,15.1-3.75,0-7.98-.96-10-1.92l1.06-8.27c2.12.77,5.38,1.54,7.79,1.54,3.37,0,6.06-1.73,8.08-6.83l2.02-5.19-18.65-50.48h11.92Z"/>
    <path class="cls-1" d="m849.09,332.87c0-17.21,9.04-26.54,24.62-26.54,10.96,0,18.75,6.44,19.62,18.17l-10.19,1.44c-.77-6.54-3.46-10.77-9.9-10.77s-12.6,3.27-12.6,16.44,5.38,17.6,12.31,17.6c6.15,0,9.81-2.98,10.96-9.9l9.62,1.92c-1.63,11.92-10.48,17.02-21.15,17.02-16.44,0-23.27-10.58-23.27-25.38Z"/>
    <path class="cls-1" d="m945.63,357.1v-32.02c0-6.25-2.31-9.52-8.17-9.52-5,0-10.19,3.08-12.6,5.29v36.25h-11.06v-72.6h10.96v27.79c4.33-3.46,9.71-5.96,16.63-5.96,10.67,0,15.29,5.67,15.29,16.92v33.85h-11.06Z"/>
    <path class="cls-1" d="m977.16,332.29c0-17.98,10.77-25.96,23.75-25.96,14.42,0,20.38,9.13,20.38,22.02,0,2.02-.1,4.33-.29,6.63h-32.21c.29,10.48,5.29,14.23,12.5,14.23,6.35,0,9.04-2.98,10.19-8.08l9.42,2.31c-1.92,9.42-9.52,14.81-20.29,14.81-17.88,0-23.46-12.31-23.46-25.96Zm23.08-17.21c-5.58,0-10.77,3.37-11.25,12.21h20.87c0-8.46-2.98-12.21-9.62-12.21Z"/>
    <path class="cls-1" d="m1075.81,357.1l-.77-5h-.19c-3.94,3.75-8.85,6.15-15.67,6.15-11.44,0-19.23-7.21-19.23-25.19,0-19.71,10.19-26.73,20.96-26.73,5.67,0,10,1.44,13.37,4.33v-26.15h10.77v72.6h-9.23Zm-12.6-41.73c-8.65,0-11.83,7.21-11.83,17.6s3.37,16.35,11.35,16.35c4.23,0,8.56-2.31,11.25-5.1v-25c-2.12-1.63-6.06-3.85-10.77-3.85Z"/>
    <path class="cls-1" d="m1105.8,332.29c0-17.98,10.77-25.96,23.75-25.96,14.42,0,20.38,9.13,20.38,22.02,0,2.02-.1,4.33-.29,6.63h-32.21c.29,10.48,5.29,14.23,12.5,14.23,6.35,0,9.04-2.98,10.19-8.08l9.42,2.31c-1.92,9.42-9.52,14.81-20.29,14.81-17.88,0-23.46-12.31-23.46-25.96Zm23.08-17.21c-5.58,0-10.77,3.37-11.25,12.21h20.87c0-8.46-2.98-12.21-9.62-12.21Z"/>
    <path class="cls-1" d="m1171.28,357.1v-72.6h11.06v72.6h-11.06Z"/>
    <path class="cls-1" d="m1211.57,299.02c-4.52,0-7.21-2.6-7.21-7.31s2.69-7.21,7.21-7.21,7.21,2.6,7.21,7.21-2.6,7.31-7.21,7.31Zm-5.58,58.08v-49.71h11.06v49.71h-11.06Z"/>
    <path class="cls-1" d="m1237.81,332.87c0-17.21,9.04-26.54,24.62-26.54,10.96,0,18.75,6.44,19.62,18.17l-10.19,1.44c-.77-6.54-3.46-10.77-9.9-10.77s-12.6,3.27-12.6,16.44,5.38,17.6,12.31,17.6c6.15,0,9.81-2.98,10.96-9.9l9.62,1.92c-1.63,11.92-10.48,17.02-21.15,17.02-16.44,0-23.27-10.58-23.27-25.38Z"/>
    <path class="cls-1" d="m1338.77,320.46l-9.62,2.5c-1.15-4.9-2.98-8.37-9.42-8.37-6.06,0-8.56,2.6-8.56,5.86,0,4.62,4.23,5.96,10.77,7.12,8.56,1.54,17.69,3.56,17.69,14.9,0,10.29-8.27,15.77-20.48,15.77s-18.75-4.81-20.29-14.04l9.42-3.08c1.25,4.71,3.27,8.85,11.25,8.85,5.48,0,9.33-1.73,9.33-5.96,0-5-4.04-5.96-10.38-7.11-8.17-1.54-17.69-3.37-17.69-15.19,0-10.38,8.75-15.38,19.13-15.38,11.54,0,16.92,5.48,18.85,14.13Z"/>
    <path class="cls-1" d="m682.95,417.76v54.71h-10.38v-69.62h14.13l30.48,54.42v-54.42h10.29v69.62h-13.27l-31.25-54.71Z"/>
    <path class="cls-1" d="m749.96,447.67c0-17.98,10.77-25.96,23.75-25.96,14.42,0,20.38,9.13,20.38,22.02,0,2.02-.1,4.33-.29,6.63h-32.21c.29,10.48,5.29,14.23,12.5,14.23,6.35,0,9.04-2.98,10.19-8.08l9.42,2.31c-1.92,9.42-9.52,14.81-20.29,14.81-17.88,0-23.46-12.31-23.46-25.96Zm23.08-17.21c-5.58,0-10.77,3.37-11.25,12.21h20.87c0-8.46-2.98-12.21-9.62-12.21Z"/>
    <path class="cls-1" d="m831.11,473.63c-9.81,0-14.81-4.42-14.81-15v-27.69h-7.6v-8.17h7.6v-14.52l11.06-1.54v16.06h13.46v8.17h-13.46v26.15c0,4.9,1.25,7.5,6.63,7.5,2.98,0,6.44-1.15,8.46-2.31l1.83,7.88c-2.5,1.63-7.88,3.46-13.17,3.46Z"/>
    <path class="cls-1" d="m854.38,422.76h11.15l10.87,38.27h.1l10-38.27h11.15l10,38.08h.1l10.58-38.08h10.77l-15.19,49.71h-12.69l-9.33-36.44h-.19l-8.94,36.44h-13.17l-15.19-49.71Z"/>
    <path class="cls-1" d="m942.93,447.86c0-15.96,8.27-26.15,24.71-26.15s22.98,10.29,22.98,25c0,16.35-7.12,26.92-24.23,26.92s-23.46-10.96-23.46-25.77Zm36.15-.58c0-12.4-4.04-16.63-11.83-16.63s-12.79,4.71-12.79,16.83,3.85,17.6,12.5,17.6c7.6,0,12.12-5,12.12-17.79Z"/>
    <path class="cls-1" d="m1022.64,437.96v34.52h-11.06v-49.71h9.33l.87,7.4c3.94-5.58,8.94-8.46,16.25-8.46.58,0,.96,0,2.02.1v11.06c-6.25-.77-13.27,1.44-17.4,5.1Z"/>
    <path class="cls-1" d="m1088.21,422.76h12.4l-16.92,17.88,18.17,31.83h-12.12l-14.33-24.52-6.54,6.44v18.08h-11.06v-72.6h11.06v42.98l19.33-20.1Z"/>
  </g>
</svg>